<svg width="535" height="170" viewBox="0 0 535 170" fill="none" xmlns="http://www.w3.org/2000/svg">
<path d="M130.188 75.625L114.881 76.0341C114.722 74.9432 114.29 73.9773 113.585 73.1364C112.881 72.2727 111.96 71.6023 110.824 71.125C109.71 70.625 108.415 70.375 106.938 70.375C105.006 70.375 103.358 70.7614 101.994 71.5341C100.653 72.3068 99.9943 73.3523 100.017 74.6705C99.9943 75.6932 100.403 76.5795 101.244 77.3295C102.108 78.0795 103.642 78.6818 105.847 79.1364L115.938 81.0455C121.165 82.0455 125.051 83.7045 127.597 86.0227C130.165 88.3409 131.46 91.4091 131.483 95.2273C131.46 98.8182 130.392 101.943 128.278 104.602C126.188 107.261 123.324 109.33 119.688 110.807C116.051 112.261 111.892 112.989 107.21 112.989C99.733 112.989 93.8352 111.455 89.517 108.386C85.2216 105.295 82.767 101.159 82.1534 95.9773L98.6193 95.5682C98.983 97.4773 99.9261 98.9318 101.449 99.9318C102.972 100.932 104.915 101.432 107.278 101.432C109.415 101.432 111.153 101.034 112.494 100.239C113.835 99.4432 114.517 98.3864 114.54 97.0682C114.517 95.8864 113.994 94.9432 112.972 94.2386C111.949 93.5114 110.347 92.9432 108.165 92.5341L99.0284 90.7955C93.7784 89.8409 89.8693 88.0795 87.3011 85.5114C84.733 82.9205 83.4602 79.625 83.483 75.625C83.4602 72.125 84.392 69.1364 86.2784 66.6591C88.1648 64.1591 90.8466 62.25 94.3239 60.9318C97.8011 59.6136 101.903 58.9545 106.631 58.9545C113.722 58.9545 119.313 60.4432 123.403 63.4205C127.494 66.375 129.756 70.4432 130.188 75.625ZM139.69 112V59.6364H156.361V112H139.69ZM148.043 53.5341C145.702 53.5341 143.69 52.7614 142.009 51.2159C140.327 49.6477 139.486 47.7614 139.486 45.5568C139.486 43.375 140.327 41.5114 142.009 39.9659C143.69 38.3977 145.702 37.6136 148.043 37.6136C150.406 37.6136 152.418 38.3977 154.077 39.9659C155.759 41.5114 156.599 43.375 156.599 45.5568C156.599 47.7614 155.759 49.6477 154.077 51.2159C152.418 52.7614 150.406 53.5341 148.043 53.5341ZM167.108 112V102.489L191.381 72.9318V72.5909H167.96V59.6364H211.256V70.0682L188.756 98.7045V99.0455H212.074V112H167.108ZM245.824 112.989C240.347 112.989 235.619 111.909 231.642 109.75C227.688 107.568 224.642 104.466 222.506 100.443C220.392 96.3977 219.335 91.5909 219.335 86.0227C219.335 80.6136 220.403 75.8864 222.54 71.8409C224.676 67.7727 227.688 64.6136 231.574 62.3636C235.46 60.0909 240.04 58.9545 245.312 58.9545C249.04 58.9545 252.449 59.5341 255.54 60.6932C258.631 61.8523 261.301 63.5682 263.551 65.8409C265.801 68.1136 267.551 70.9205 268.801 74.2614C270.051 77.5795 270.676 81.3864 270.676 85.6818V89.8409H225.165V80.1591H255.165C255.142 78.3864 254.722 76.8068 253.903 75.4205C253.085 74.0341 251.96 72.9545 250.528 72.1818C249.119 71.3864 247.494 70.9886 245.653 70.9886C243.79 70.9886 242.119 71.4091 240.642 72.25C239.165 73.0682 237.994 74.1932 237.131 75.625C236.267 77.0341 235.813 78.6364 235.767 80.4318V90.2841C235.767 92.4205 236.188 94.2955 237.028 95.9091C237.869 97.5 239.062 98.7386 240.608 99.625C242.153 100.511 243.994 100.955 246.131 100.955C247.608 100.955 248.949 100.75 250.153 100.341C251.358 99.9318 252.392 99.3295 253.256 98.5341C254.119 97.7386 254.767 96.7614 255.199 95.6023L270.506 96.0455C269.869 99.4773 268.472 102.466 266.312 105.011C264.176 107.534 261.369 109.5 257.892 110.909C254.415 112.295 250.392 112.989 245.824 112.989ZM279.19 112V59.6364H295.384V69.1818H295.929C296.884 65.7273 298.44 63.1591 300.599 61.4773C302.759 59.7727 305.27 58.9205 308.134 58.9205C308.906 58.9205 309.702 58.9773 310.52 59.0909C311.338 59.1818 312.099 59.3295 312.804 59.5341V74.0227C312.009 73.75 310.963 73.5341 309.668 73.375C308.395 73.2159 307.259 73.1364 306.259 73.1364C304.281 73.1364 302.497 73.5795 300.906 74.4659C299.338 75.3295 298.099 76.5455 297.19 78.1136C296.304 79.6591 295.861 81.4773 295.861 83.5682V112H279.19Z" fill="#A8A8A8"/>
<path d="M322.972 112.989C320.517 112.989 318.415 112.125 316.665 110.398C314.938 108.67 314.085 106.58 314.108 104.125C314.085 101.716 314.938 99.6591 316.665 97.9545C318.415 96.2273 320.517 95.3636 322.972 95.3636C325.29 95.3636 327.335 96.2273 329.108 97.9545C330.903 99.6591 331.813 101.716 331.835 104.125C331.813 105.761 331.381 107.25 330.54 108.591C329.722 109.932 328.642 111 327.301 111.795C325.983 112.591 324.54 112.989 322.972 112.989ZM341.5 57.3438C341.5 56.0938 342.125 55.2812 343.375 54.9062C343.688 54.8438 343.938 54.8125 344.125 54.8125C345.375 54.8125 346.188 55.4062 346.562 56.5938C346.625 56.8438 346.656 57.0938 346.656 57.3438C346.656 58.5938 346.062 59.4062 344.875 59.7812C344.625 59.8438 344.375 59.875 344.125 59.875C342.812 59.875 341.969 59.2812 341.594 58.0938C341.531 57.7812 341.5 57.5312 341.5 57.3438ZM342.25 112V63.625H346V112H342.25ZM354.156 112V76.6562C354.156 72.4688 355.562 69.0938 358.375 66.5312C360.75 64.4062 363.812 63.3438 367.562 63.3438V66.9062C363.562 66.9062 360.719 68.6562 359.031 72.1562C358.281 73.7188 357.906 75.375 357.906 77.125V112H354.156ZM371.688 66.9062V63.3438C376.438 63.3438 380 64.9688 382.375 68.2188C382.688 68.7188 383.031 69.25 383.406 69.8125C385.344 66.625 387.688 64.6562 390.438 63.9062C391.812 63.5312 393.344 63.3438 395.031 63.3438V66.9062C391.031 66.9062 388.188 68.625 386.5 72.0625C385.688 73.625 385.281 75.3125 385.281 77.125V112H381.531V77.125C381.531 73.25 380.062 70.3438 377.125 68.4062C375.5 67.4062 373.688 66.9062 371.688 66.9062ZM399.156 66.9062V63.3438C405.031 63.3438 409.125 65.9062 411.438 71.0312C412.25 72.9688 412.656 74.8438 412.656 76.6562V112H408.906V77.125C408.906 73.0625 407.375 70.0938 404.312 68.2188C402.75 67.3438 401.031 66.9062 399.156 66.9062ZM419.031 128.969L420.062 125.406H436.938C441.688 125.219 445.281 123.469 447.719 120.156C448.781 118.656 449.312 117.188 449.312 115.75V106.938C448.125 108.688 446.188 110.094 443.5 111.156C441.875 111.719 440.219 112.031 438.531 112.094V108.812C441.469 108.812 444.156 107.469 446.594 104.781C448.344 102.844 449.25 100.906 449.312 98.9688V76.9375C449.312 73.125 447.312 70.2812 443.312 68.4062C441.625 67.5938 440.031 67.1875 438.531 67.1875V63.625C442.031 63.625 445.219 64.7812 448.094 67.0938C448.656 67.5938 449.062 68.0312 449.312 68.4062V63.625H453.062V115.75C453.062 118.312 451.906 121 449.594 123.812C446.656 127.188 443.031 128.906 438.719 128.969H419.031ZM419.875 98.9688V76.5625C419.938 73.625 421.219 70.8125 423.719 68.125C426.531 65.125 430.062 63.625 434.312 63.625V67.1875C430.812 67.1875 427.875 68.7812 425.5 71.9688C424.25 73.7188 423.625 75.3438 423.625 76.8438V98.875C423.625 101.125 424.781 103.344 427.094 105.531C429.281 107.531 431.688 108.531 434.312 108.531V112.094C428.688 112.031 424.469 109.625 421.656 104.875C420.469 102.75 419.875 100.781 419.875 98.9688Z" fill="#00FFFF"/>
<path d="M190.399 160V149.6H192.139V151.86C192.312 151.42 192.545 151.013 192.839 150.64C193.132 150.253 193.499 149.947 193.939 149.72C194.379 149.48 194.892 149.36 195.479 149.36C195.679 149.36 195.879 149.373 196.079 149.4C196.279 149.413 196.445 149.44 196.579 149.48L196.039 151.34C195.785 151.233 195.485 151.18 195.139 151.18C194.645 151.18 194.172 151.32 193.719 151.6C193.279 151.88 192.912 152.313 192.619 152.9C192.339 153.487 192.199 154.233 192.199 155.14V160H190.399ZM201.942 160.24C200.448 160.24 199.262 159.767 198.382 158.82C197.515 157.86 197.082 156.52 197.082 154.8C197.082 153.76 197.275 152.833 197.662 152.02C198.062 151.193 198.615 150.547 199.322 150.08C200.028 149.6 200.848 149.36 201.782 149.36C202.782 149.36 203.608 149.58 204.262 150.02C204.928 150.447 205.428 151.027 205.762 151.76C206.095 152.493 206.262 153.3 206.262 154.18C206.262 154.647 206.242 155.1 206.202 155.54H198.922C199.042 156.513 199.382 157.273 199.942 157.82C200.502 158.367 201.242 158.64 202.162 158.64C202.762 158.64 203.302 158.58 203.782 158.46C204.262 158.327 204.722 158.16 205.162 157.96L205.582 159.5C205.102 159.713 204.562 159.887 203.962 160.02C203.362 160.167 202.688 160.24 201.942 160.24ZM198.902 154.08H204.602C204.602 153.067 204.348 152.287 203.842 151.74C203.335 151.193 202.635 150.92 201.742 150.92C200.968 150.92 200.328 151.193 199.822 151.74C199.315 152.273 199.008 153.053 198.902 154.08ZM211.461 160.24C210.674 160.24 209.961 160.14 209.321 159.94C208.694 159.74 208.174 159.48 207.761 159.16L208.521 157.66C208.867 157.953 209.301 158.2 209.821 158.4C210.354 158.587 210.921 158.68 211.521 158.68C212.267 158.68 212.827 158.56 213.201 158.32C213.587 158.067 213.781 157.747 213.781 157.36C213.781 157.08 213.707 156.833 213.561 156.62C213.427 156.407 213.174 156.2 212.801 156C212.427 155.787 211.887 155.56 211.181 155.32C210.207 154.987 209.474 154.593 208.981 154.14C208.501 153.673 208.261 153.033 208.261 152.22C208.261 151.42 208.607 150.747 209.301 150.2C210.007 149.64 210.981 149.36 212.221 149.36C212.887 149.36 213.481 149.433 214.001 149.58C214.521 149.713 214.987 149.887 215.401 150.1L214.901 151.58C214.541 151.367 214.127 151.193 213.661 151.06C213.207 150.927 212.701 150.86 212.141 150.86C211.447 150.86 210.921 151 210.561 151.28C210.201 151.56 210.021 151.867 210.021 152.2C210.021 152.52 210.161 152.793 210.441 153.02C210.721 153.247 211.267 153.493 212.081 153.76C213.401 154.2 214.321 154.687 214.841 155.22C215.361 155.753 215.621 156.42 215.621 157.22C215.621 158.153 215.241 158.893 214.481 159.44C213.734 159.973 212.727 160.24 211.461 160.24ZM218.016 160V149.6H219.816V160H218.016ZM218.916 147.82C218.569 147.82 218.269 147.693 218.016 147.44C217.776 147.187 217.656 146.893 217.656 146.56C217.656 146.173 217.769 145.867 217.996 145.64C218.223 145.413 218.529 145.3 218.916 145.3C219.263 145.3 219.556 145.427 219.796 145.68C220.049 145.92 220.176 146.213 220.176 146.56C220.176 146.933 220.063 147.24 219.836 147.48C219.609 147.707 219.303 147.82 218.916 147.82ZM222.116 160V158.58L227.856 151.16H222.236V149.6H230.056V150.98L224.336 158.4H230.156V160H222.116ZM236.414 160.24C234.921 160.24 233.734 159.767 232.854 158.82C231.988 157.86 231.554 156.52 231.554 154.8C231.554 153.76 231.748 152.833 232.134 152.02C232.534 151.193 233.088 150.547 233.794 150.08C234.501 149.6 235.321 149.36 236.254 149.36C237.254 149.36 238.081 149.58 238.734 150.02C239.401 150.447 239.901 151.027 240.234 151.76C240.568 152.493 240.734 153.3 240.734 154.18C240.734 154.647 240.714 155.1 240.674 155.54H233.394C233.514 156.513 233.854 157.273 234.414 157.82C234.974 158.367 235.714 158.64 236.634 158.64C237.234 158.64 237.774 158.58 238.254 158.46C238.734 158.327 239.194 158.16 239.634 157.96L240.054 159.5C239.574 159.713 239.034 159.887 238.434 160.02C237.834 160.167 237.161 160.24 236.414 160.24ZM233.374 154.08H239.074C239.074 153.067 238.821 152.287 238.314 151.74C237.808 151.193 237.108 150.92 236.214 150.92C235.441 150.92 234.801 151.193 234.294 151.74C233.788 152.273 233.481 153.053 233.374 154.08ZM253.109 160.24C252.243 160.24 251.456 160.02 250.749 159.58C250.043 159.14 249.476 158.52 249.049 157.72C248.636 156.907 248.429 155.953 248.429 154.86C248.429 153.82 248.636 152.887 249.049 152.06C249.476 151.233 250.056 150.58 250.789 150.1C251.536 149.607 252.389 149.36 253.349 149.36C253.949 149.36 254.489 149.467 254.969 149.68C255.463 149.88 255.889 150.133 256.249 150.44V149.6H257.889V157.48C257.889 157.987 258.009 158.32 258.249 158.48C258.503 158.627 258.776 158.7 259.069 158.7L258.689 160.1C257.409 160.1 256.636 159.58 256.369 158.54C256.063 158.967 255.643 159.36 255.109 159.72C254.589 160.067 253.923 160.24 253.109 160.24ZM253.509 158.64C254.016 158.64 254.496 158.52 254.949 158.28C255.403 158.027 255.783 157.713 256.089 157.34V151.76C255.729 151.507 255.329 151.307 254.889 151.16C254.463 151 254.009 150.92 253.529 150.92C252.889 150.92 252.323 151.087 251.829 151.42C251.349 151.74 250.969 152.193 250.689 152.78C250.409 153.353 250.269 154.027 250.269 154.8C250.269 155.547 250.409 156.213 250.689 156.8C250.969 157.373 251.356 157.827 251.849 158.16C252.343 158.48 252.896 158.64 253.509 158.64ZM261.473 160V149.6H263.213V151.34C263.586 150.78 264.06 150.313 264.633 149.94C265.22 149.553 265.913 149.36 266.713 149.36C267.886 149.36 268.76 149.713 269.333 150.42C269.92 151.127 270.213 152.06 270.213 153.22V160H268.413V153.42C268.413 152.673 268.233 152.073 267.873 151.62C267.526 151.167 267.04 150.94 266.413 150.94C265.8 150.94 265.22 151.16 264.673 151.6C264.126 152.027 263.66 152.533 263.273 153.12V160H261.473ZM273.569 164.64C273.169 164.64 272.816 164.6 272.509 164.52C272.216 164.44 271.982 164.347 271.809 164.24L272.209 162.74C272.369 162.833 272.569 162.913 272.809 162.98C273.049 163.047 273.316 163.08 273.609 163.08C274.169 163.08 274.669 162.9 275.109 162.54C275.549 162.18 275.969 161.473 276.369 160.42L276.829 159.22H275.869L271.809 150.08L273.409 149.36L277.289 158.02L280.309 149.44L281.969 150.08L278.149 160.52C277.762 161.587 277.342 162.42 276.889 163.02C276.436 163.62 275.936 164.04 275.389 164.28C274.842 164.52 274.236 164.64 273.569 164.64ZM289.774 160V149.6H291.574V160H289.774ZM290.674 147.82C290.327 147.82 290.027 147.693 289.774 147.44C289.534 147.187 289.414 146.893 289.414 146.56C289.414 146.173 289.527 145.867 289.754 145.64C289.98 145.413 290.287 145.3 290.674 145.3C291.02 145.3 291.314 145.427 291.554 145.68C291.807 145.92 291.934 146.213 291.934 146.56C291.934 146.933 291.82 147.24 291.594 147.48C291.367 147.707 291.06 147.82 290.674 147.82ZM294.774 160V149.6H296.514V151.34C296.887 150.78 297.36 150.313 297.934 149.94C298.507 149.553 299.16 149.36 299.894 149.36C300.72 149.36 301.394 149.56 301.914 149.96C302.447 150.36 302.82 150.893 303.034 151.56C303.447 150.947 303.934 150.427 304.494 150C305.067 149.573 305.774 149.36 306.614 149.36C307.747 149.36 308.587 149.72 309.134 150.44C309.694 151.147 309.974 152.073 309.974 153.22V160H308.174V153.36C308.174 152.64 308.007 152.06 307.674 151.62C307.34 151.167 306.88 150.94 306.294 150.94C305.694 150.94 305.134 151.167 304.614 151.62C304.107 152.06 303.66 152.58 303.274 153.18V160H301.474V153.36C301.474 152.64 301.307 152.06 300.974 151.62C300.64 151.167 300.18 150.94 299.594 150.94C299.007 150.94 298.454 151.16 297.934 151.6C297.414 152.027 296.96 152.533 296.574 153.12V160H294.774ZM317.055 160.24C316.188 160.24 315.401 160.02 314.695 159.58C313.988 159.14 313.421 158.52 312.995 157.72C312.581 156.907 312.375 155.953 312.375 154.86C312.375 153.82 312.581 152.887 312.995 152.06C313.421 151.233 314.001 150.58 314.735 150.1C315.481 149.607 316.335 149.36 317.295 149.36C317.895 149.36 318.435 149.467 318.915 149.68C319.408 149.88 319.835 150.133 320.195 150.44V149.6H321.835V157.48C321.835 157.987 321.955 158.32 322.195 158.48C322.448 158.627 322.721 158.7 323.015 158.7L322.635 160.1C321.355 160.1 320.581 159.58 320.315 158.54C320.008 158.967 319.588 159.36 319.055 159.72C318.535 160.067 317.868 160.24 317.055 160.24ZM317.455 158.64C317.961 158.64 318.441 158.52 318.895 158.28C319.348 158.027 319.728 157.713 320.035 157.34V151.76C319.675 151.507 319.275 151.307 318.835 151.16C318.408 151 317.955 150.92 317.475 150.92C316.835 150.92 316.268 151.087 315.775 151.42C315.295 151.74 314.915 152.193 314.635 152.78C314.355 153.353 314.215 154.027 314.215 154.8C314.215 155.547 314.355 156.213 314.635 156.8C314.915 157.373 315.301 157.827 315.795 158.16C316.288 158.48 316.841 158.64 317.455 158.64ZM329.043 164.64C328.43 164.64 327.83 164.567 327.243 164.42C326.67 164.273 326.156 164.053 325.703 163.76L326.363 162.2C326.683 162.453 327.056 162.66 327.483 162.82C327.91 162.993 328.43 163.08 329.043 163.08C329.99 163.08 330.73 162.827 331.263 162.32C331.81 161.827 332.083 161.033 332.083 159.94V158.66C331.816 158.98 331.43 159.287 330.923 159.58C330.43 159.86 329.836 160 329.143 160C328.356 160 327.61 159.8 326.903 159.4C326.196 158.987 325.623 158.387 325.183 157.6C324.743 156.813 324.523 155.867 324.523 154.76C324.523 153.72 324.736 152.793 325.163 151.98C325.603 151.167 326.19 150.527 326.923 150.06C327.656 149.593 328.463 149.36 329.343 149.36C329.93 149.36 330.463 149.46 330.943 149.66C331.423 149.86 331.836 150.107 332.183 150.4V149.6H333.823V159.76C333.823 160.907 333.623 161.84 333.223 162.56C332.823 163.28 332.263 163.807 331.543 164.14C330.836 164.473 330.003 164.64 329.043 164.64ZM329.543 158.4C330.076 158.4 330.556 158.28 330.983 158.04C331.41 157.8 331.756 157.52 332.023 157.2V151.76C331.73 151.547 331.376 151.353 330.963 151.18C330.55 151.007 330.07 150.92 329.523 150.92C328.976 150.92 328.463 151.067 327.983 151.36C327.503 151.653 327.11 152.08 326.803 152.64C326.51 153.187 326.363 153.86 326.363 154.66C326.363 155.42 326.51 156.08 326.803 156.64C327.11 157.2 327.503 157.633 327.983 157.94C328.463 158.247 328.983 158.4 329.543 158.4ZM341.082 160.24C339.589 160.24 338.402 159.767 337.522 158.82C336.656 157.86 336.222 156.52 336.222 154.8C336.222 153.76 336.416 152.833 336.802 152.02C337.202 151.193 337.756 150.547 338.462 150.08C339.169 149.6 339.989 149.36 340.922 149.36C341.922 149.36 342.749 149.58 343.402 150.02C344.069 150.447 344.569 151.027 344.902 151.76C345.236 152.493 345.402 153.3 345.402 154.18C345.402 154.647 345.382 155.1 345.342 155.54H338.062C338.182 156.513 338.522 157.273 339.082 157.82C339.642 158.367 340.382 158.64 341.302 158.64C341.902 158.64 342.442 158.58 342.922 158.46C343.402 158.327 343.862 158.16 344.302 157.96L344.722 159.5C344.242 159.713 343.702 159.887 343.102 160.02C342.502 160.167 341.829 160.24 341.082 160.24ZM338.042 154.08H343.742C343.742 153.067 343.489 152.287 342.982 151.74C342.476 151.193 341.776 150.92 340.882 150.92C340.109 150.92 339.469 151.193 338.962 151.74C338.456 152.273 338.149 153.053 338.042 154.08Z" fill="white"/>
<path d="M97.125 4.83382H84.7083V48.2923H128.167V35.8755H105.905L132.557 9.22373L123.777 0.443848L97.125 27.0955V4.83382ZM28.8338 73.125H51.0955L24.4438 99.7767L33.2237 108.557L59.8755 81.9048V104.167H72.2923V60.7083H28.8338V73.125Z" fill="#00FFFF"/>
</svg>
